<svg xmlns="http://www.w3.org/2000/svg" opacity="0.3" version="1.1" xmlns:xlink="http://www.w3.org/1999/xlink" xmlns:svgjs="http://svgjs.dev/svgjs" viewBox="0 0 800 800"><circle r="8.5" cx="649" cy="718" stroke-width="2" stroke="hsl(165, 50%, 50%)" fill="none" opacity="0.2"></circle><circle r="9.5" cx="717" cy="422" stroke-width="2" stroke="hsl(159, 50%, 50%)" fill="none" opacity="0.65"></circle><circle r="7" cx="161" cy="731" stroke-width="2" stroke="hsl(95, 50%, 50%)" fill="none" opacity="0.14"></circle><circle r="12" cx="562" cy="431" stroke-width="2" stroke="hsl(162, 50%, 50%)" fill="none" opacity="0.77"></circle><circle r="9" cx="767" cy="414" stroke-width="2" stroke="hsl(158, 50%, 50%)" fill="none" opacity="0.45"></circle><circle r="9.5" cx="666" cy="308" stroke-width="2" stroke="hsl(163, 50%, 50%)" fill="none" opacity="0.87"></circle><circle r="9" cx="635" cy="633" stroke-width="2" stroke="hsl(166, 50%, 50%)" fill="none" opacity="0.72"></circle><circle r="6.5" cx="462" cy="544" stroke-width="2" stroke="hsl(121, 50%, 50%)" fill="none" opacity="0.47"></circle><circle r="6.5" cx="583" cy="533" stroke-width="2" stroke="hsl(165, 50%, 50%)" fill="none" opacity="0.22"></circle><circle r="6" cx="310" cy="101" stroke-width="2" stroke="hsl(143, 50%, 50%)" fill="none" opacity="0.24"></circle><circle r="9" cx="708" cy="679" stroke-width="2" stroke="hsl(160, 50%, 50%)" fill="none" opacity="0.66"></circle><circle r="9" cx="440" cy="152" stroke-width="2" stroke="hsl(145, 50%, 50%)" fill="none" opacity="0.94"></circle><circle r="9" cx="697" cy="502" stroke-width="2" stroke="hsl(160, 50%, 50%)" fill="none" opacity="0.46"></circle><circle r="7.5" cx="248" cy="704" stroke-width="2" stroke="hsl(79, 50%, 50%)" fill="none" opacity="0.43"></circle><circle r="8.5" cx="669" cy="613" stroke-width="2" stroke="hsl(163, 50%, 50%)" fill="none" opacity="0.93"></circle><circle r="7" cx="737" cy="91" stroke-width="2" stroke="hsl(70, 50%, 50%)" fill="none" opacity="0.77"></circle><circle r="9" cx="664" cy="681" stroke-width="2" stroke="hsl(163, 50%, 50%)" fill="none" opacity="0.96"></circle><circle r="5.5" cx="63" cy="162" stroke-width="2" stroke="hsl(76, 50%, 50%)" fill="none" opacity="0.92"></circle><circle r="9" cx="364" cy="584" stroke-width="2" stroke="hsl(77, 50%, 50%)" fill="none" opacity="0.86"></circle><circle r="6" cx="17" cy="232" stroke-width="2" stroke="hsl(95, 50%, 50%)" fill="none" opacity="0.89"></circle><circle r="7.5" cx="258" cy="135" stroke-width="2" stroke="hsl(103, 50%, 50%)" fill="none" opacity="0.31"></circle><circle r="14.5" cx="465" cy="39" stroke-width="2" stroke="hsl(283, 50%, 50%)" fill="none" opacity="0.14"></circle><circle r="6.5" cx="417" cy="619" stroke-width="2" stroke="hsl(100, 50%, 50%)" fill="none" opacity="0.50"></circle><circle r="6" cx="407" cy="414" stroke-width="2" stroke="hsl(94, 50%, 50%)" fill="none" opacity="0.76"></circle><circle r="6" cx="499" cy="574" stroke-width="2" stroke="hsl(141, 50%, 50%)" fill="none" opacity="0.44"></circle><circle r="10" cx="89" cy="611" stroke-width="2" stroke="hsl(95, 50%, 50%)" fill="none" opacity="0.97"></circle><circle r="9" cx="21" cy="35" stroke-width="2" stroke="hsl(145, 50%, 50%)" fill="none" opacity="0.90"></circle><circle r="6.5" cx="590" cy="357" stroke-width="2" stroke="hsl(166, 50%, 50%)" fill="none" opacity="0.72"></circle><circle r="7.5" cx="408" cy="701" stroke-width="2" stroke="hsl(94, 50%, 50%)" fill="none" opacity="0.45"></circle><circle r="6" cx="28" cy="555" stroke-width="2" stroke="hsl(95, 50%, 50%)" fill="none" opacity="0.31"></circle><circle r="8" cx="218" cy="779" stroke-width="2" stroke="hsl(85, 50%, 50%)" fill="none" opacity="0.54"></circle><circle r="8.5" cx="320" cy="366" stroke-width="2" stroke="hsl(68, 50%, 50%)" fill="none" opacity="0.55"></circle><circle r="5.5" cx="13" cy="529" stroke-width="2" stroke="hsl(95, 50%, 50%)" fill="none" opacity="0.82"></circle><circle r="8.5" cx="247" cy="58" stroke-width="2" stroke="hsl(172, 50%, 50%)" fill="none" opacity="0.74"></circle><circle r="6" cx="778" cy="335" stroke-width="2" stroke="hsl(158, 50%, 50%)" fill="none" opacity="0.67"></circle><circle r="7.5" cx="751" cy="229" stroke-width="2" stroke="hsl(158, 50%, 50%)" fill="none" opacity="0.48"></circle><circle r="4.5" cx="75" cy="788" stroke-width="2" stroke="hsl(95, 50%, 50%)" fill="none" opacity="0.12"></circle><circle r="10" cx="717" cy="723" stroke-width="2" stroke="hsl(159, 50%, 50%)" fill="none" opacity="0.67"></circle><circle r="7.5" cx="249" cy="312" stroke-width="2" stroke="hsl(79, 50%, 50%)" fill="none" opacity="0.92"></circle><circle r="9" cx="661" cy="155" stroke-width="2" stroke="hsl(131, 50%, 50%)" fill="none" opacity="0.67"></circle><circle r="7.5" cx="19" cy="277" stroke-width="2" stroke="hsl(95, 50%, 50%)" fill="none" opacity="0.36"></circle><circle r="5.5" cx="420" cy="442" stroke-width="2" stroke="hsl(100, 50%, 50%)" fill="none" opacity="0.49"></circle><circle r="7.5" cx="128" cy="684" stroke-width="2" stroke="hsl(96, 50%, 50%)" fill="none" opacity="0.47"></circle><circle r="6" cx="51" cy="315" stroke-width="2" stroke="hsl(95, 50%, 50%)" fill="none" opacity="0.31"></circle><circle r="9.5" cx="533" cy="773" stroke-width="2" stroke="hsl(156, 50%, 50%)" fill="none" opacity="0.48"></circle><circle r="7" cx="207" cy="584" stroke-width="2" stroke="hsl(88, 50%, 50%)" fill="none" opacity="0.22"></circle><circle r="10" cx="718" cy="380" stroke-width="2" stroke="hsl(159, 50%, 50%)" fill="none" opacity="0.11"></circle><circle r="6" cx="741" cy="471" stroke-width="2" stroke="hsl(158, 50%, 50%)" fill="none" opacity="0.56"></circle><circle r="7" cx="418" cy="113" stroke-width="2" stroke="hsl(182, 50%, 50%)" fill="none" opacity="0.26"></circle><circle r="7" cx="517" cy="655" stroke-width="2" stroke="hsl(151, 50%, 50%)" fill="none" opacity="0.47"></circle><circle r="9.5" cx="620" cy="150" stroke-width="2" stroke="hsl(146, 50%, 50%)" fill="none" opacity="0.98"></circle><circle r="11.5" cx="221" cy="174" stroke-width="2" stroke="hsl(86, 50%, 50%)" fill="none" opacity="0.97"></circle><circle r="6" cx="32" cy="648" stroke-width="2" stroke="hsl(95, 50%, 50%)" fill="none" opacity="0.41"></circle><circle r="7.5" cx="210" cy="543" stroke-width="2" stroke="hsl(88, 50%, 50%)" fill="none" opacity="0.58"></circle><circle r="6" cx="144" cy="778" stroke-width="2" stroke="hsl(96, 50%, 50%)" fill="none" opacity="0.59"></circle><circle r="9.5" cx="728" cy="337" stroke-width="2" stroke="hsl(158, 50%, 50%)" fill="none" opacity="0.92"></circle><circle r="6" cx="448" cy="451" stroke-width="2" stroke="hsl(114, 50%, 50%)" fill="none" opacity="0.17"></circle><circle r="11.5" cx="618" cy="440" stroke-width="2" stroke="hsl(166, 50%, 50%)" fill="none" opacity="0.44"></circle><circle r="6" cx="592" cy="672" stroke-width="2" stroke="hsl(166, 50%, 50%)" fill="none" opacity="0.79"></circle><circle r="7.5" cx="449" cy="722" stroke-width="2" stroke="hsl(114, 50%, 50%)" fill="none" opacity="0.31"></circle><circle r="5" cx="265" cy="498" stroke-width="2" stroke="hsl(73, 50%, 50%)" fill="none" opacity="0.18"></circle><circle r="6" cx="418" cy="785" stroke-width="2" stroke="hsl(100, 50%, 50%)" fill="none" opacity="0.92"></circle><circle r="7.5" cx="602" cy="645" stroke-width="2" stroke="hsl(166, 50%, 50%)" fill="none" opacity="0.87"></circle><circle r="6.5" cx="762" cy="479" stroke-width="2" stroke="hsl(158, 50%, 50%)" fill="none" opacity="0.94"></circle><circle r="9.5" cx="518" cy="478" stroke-width="2" stroke="hsl(151, 50%, 50%)" fill="none" opacity="0.15"></circle><circle r="6.5" cx="215" cy="415" stroke-width="2" stroke="hsl(85, 50%, 50%)" fill="none" opacity="0.59"></circle><circle r="6.5" cx="748" cy="156" stroke-width="2" stroke="hsl(111, 50%, 50%)" fill="none" opacity="0.81"></circle><circle r="8.5" cx="397" cy="477" stroke-width="2" stroke="hsl(88, 50%, 50%)" fill="none" opacity="0.55"></circle><circle r="5.5" cx="191" cy="718" stroke-width="2" stroke="hsl(90, 50%, 50%)" fill="none" opacity="0.24"></circle><circle r="7" cx="299" cy="606" stroke-width="2" stroke="hsl(69, 50%, 50%)" fill="none" opacity="0.12"></circle><circle r="7" cx="18" cy="781" stroke-width="2" stroke="hsl(95, 50%, 50%)" fill="none" opacity="0.86"></circle><circle r="10" cx="638" cy="340" stroke-width="2" stroke="hsl(165, 50%, 50%)" fill="none" opacity="0.85"></circle><circle r="8.5" cx="659" cy="204" stroke-width="2" stroke="hsl(164, 50%, 50%)" fill="none" opacity="0.97"></circle><circle r="7" cx="349" cy="673" stroke-width="2" stroke="hsl(70, 50%, 50%)" fill="none" opacity="0.58"></circle><circle r="5" cx="151" cy="571" stroke-width="2" stroke="hsl(95, 50%, 50%)" fill="none" opacity="0.44"></circle><circle r="5.5" cx="50" cy="777" stroke-width="2" stroke="hsl(95, 50%, 50%)" fill="none" opacity="0.85"></circle><circle r="6" cx="416" cy="336" stroke-width="2" stroke="hsl(100, 50%, 50%)" fill="none" opacity="0.75"></circle><circle r="10" cx="690" cy="252" stroke-width="2" stroke="hsl(160, 50%, 50%)" fill="none" opacity="0.17"></circle><circle r="9.5" cx="621" cy="686" stroke-width="2" stroke="hsl(166, 50%, 50%)" fill="none" opacity="0.56"></circle><circle r="5" cx="789" cy="477" stroke-width="2" stroke="hsl(158, 50%, 50%)" fill="none" opacity="0.84"></circle><circle r="8.5" cx="266" cy="94" stroke-width="2" stroke="hsl(144, 50%, 50%)" fill="none" opacity="0.58"></circle><circle r="7" cx="782" cy="445" stroke-width="2" stroke="hsl(158, 50%, 50%)" fill="none" opacity="0.72"></circle><circle r="6.5" cx="73" cy="82" stroke-width="2" stroke="hsl(97, 50%, 50%)" fill="none" opacity="0.18"></circle><circle r="5" cx="387" cy="355" stroke-width="2" stroke="hsl(82, 50%, 50%)" fill="none" opacity="0.59"></circle><circle r="6.5" cx="254" cy="753" stroke-width="2" stroke="hsl(76, 50%, 50%)" fill="none" opacity="0.19"></circle><circle r="8" cx="104" cy="247" stroke-width="2" stroke="hsl(96, 50%, 50%)" fill="none" opacity="0.83"></circle><circle r="6" cx="564" cy="625" stroke-width="2" stroke="hsl(164, 50%, 50%)" fill="none" opacity="0.50"></circle><circle r="6.5" cx="230" cy="485" stroke-width="2" stroke="hsl(82, 50%, 50%)" fill="none" opacity="0.36"></circle><circle r="9" cx="26" cy="461" stroke-width="2" stroke="hsl(95, 50%, 50%)" fill="none" opacity="0.70"></circle><circle r="10.5" cx="584" cy="289" stroke-width="2" stroke="hsl(165, 50%, 50%)" fill="none" opacity="0.81"></circle><circle r="6.5" cx="242" cy="527" stroke-width="2" stroke="hsl(79, 50%, 50%)" fill="none" opacity="0.69"></circle><circle r="8.5" cx="524" cy="529" stroke-width="2" stroke="hsl(151, 50%, 50%)" fill="none" opacity="0.14"></circle><circle r="14" cx="770" cy="762" stroke-width="2" stroke="hsl(158, 50%, 50%)" fill="none" opacity="0.76"></circle><circle r="7" cx="328" cy="123" stroke-width="2" stroke="hsl(136, 50%, 50%)" fill="none" opacity="0.83"></circle><circle r="12.5" cx="389" cy="74" stroke-width="2" stroke="hsl(240, 50%, 50%)" fill="none" opacity="0.88"></circle><circle r="9" cx="624" cy="224" stroke-width="2" stroke="hsl(166, 50%, 50%)" fill="none" opacity="0.21"></circle><circle r="12" cx="672" cy="446" stroke-width="2" stroke="hsl(163, 50%, 50%)" fill="none" opacity="0.78"></circle><circle r="7" cx="551" cy="194" stroke-width="2" stroke="hsl(162, 50%, 50%)" fill="none" opacity="0.97"></circle><circle r="6.5" cx="177" cy="777" stroke-width="2" stroke="hsl(92, 50%, 50%)" fill="none" opacity="0.37"></circle><circle r="13" cx="513" cy="89" stroke-width="2" stroke="hsl(225, 50%, 50%)" fill="none" opacity="0.84"></circle><circle r="7" cx="363" cy="286" stroke-width="2" stroke="hsl(77, 50%, 50%)" fill="none" opacity="0.42"></circle><circle r="9.5" cx="501" cy="425" stroke-width="2" stroke="hsl(146, 50%, 50%)" fill="none" opacity="0.87"></circle><circle r="6.5" cx="450" cy="594" stroke-width="2" stroke="hsl(121, 50%, 50%)" fill="none" opacity="0.64"></circle><circle r="4.5" cx="277" cy="550" stroke-width="2" stroke="hsl(71, 50%, 50%)" fill="none" opacity="0.31"></circle><circle r="5" cx="790" cy="534" stroke-width="2" stroke="hsl(158, 50%, 50%)" fill="none" opacity="0.54"></circle><circle r="7.5" cx="382" cy="633" stroke-width="2" stroke="hsl(82, 50%, 50%)" fill="none" opacity="0.89"></circle><circle r="6" cx="149" cy="394" stroke-width="2" stroke="hsl(96, 50%, 50%)" fill="none" opacity="0.85"></circle><circle r="5.5" cx="50" cy="106" stroke-width="2" stroke="hsl(76, 50%, 50%)" fill="none" opacity="0.56"></circle><circle r="9.5" cx="450" cy="499" stroke-width="2" stroke="hsl(114, 50%, 50%)" fill="none" opacity="0.89"></circle><circle r="7.5" cx="124" cy="449" stroke-width="2" stroke="hsl(96, 50%, 50%)" fill="none" opacity="0.49"></circle><circle r="7" cx="413" cy="748" stroke-width="2" stroke="hsl(100, 50%, 50%)" fill="none" opacity="0.47"></circle><circle r="8.5" cx="379" cy="201" stroke-width="2" stroke="hsl(82, 50%, 50%)" fill="none" opacity="0.23"></circle><circle r="5.5" cx="547" cy="497" stroke-width="2" stroke="hsl(159, 50%, 50%)" fill="none" opacity="0.97"></circle><circle r="12" cx="63" cy="25" stroke-width="2" stroke="hsl(164, 50%, 50%)" fill="none" opacity="0.55"></circle><circle r="8" cx="332" cy="630" stroke-width="2" stroke="hsl(68, 50%, 50%)" fill="none" opacity="0.11"></circle><circle r="9.5" cx="755" cy="631" stroke-width="2" stroke="hsl(158, 50%, 50%)" fill="none" opacity="0.59"></circle><circle r="9" cx="109" cy="191" stroke-width="2" stroke="hsl(96, 50%, 50%)" fill="none" opacity="0.99"></circle><circle r="6.5" cx="486" cy="155" stroke-width="2" stroke="hsl(161, 50%, 50%)" fill="none" opacity="0.65"></circle><circle r="8" cx="290" cy="777" stroke-width="2" stroke="hsl(69, 50%, 50%)" fill="none" opacity="0.84"></circle><circle r="8" cx="614" cy="190" stroke-width="2" stroke="hsl(166, 50%, 50%)" fill="none" opacity="0.90"></circle><circle r="7" cx="377" cy="740" stroke-width="2" stroke="hsl(82, 50%, 50%)" fill="none" opacity="0.25"></circle><circle r="8.5" cx="425" cy="546" stroke-width="2" stroke="hsl(107, 50%, 50%)" fill="none" opacity="0.49"></circle><circle r="7" cx="756" cy="369" stroke-width="2" stroke="hsl(158, 50%, 50%)" fill="none" opacity="0.83"></circle><circle r="7" cx="82" cy="448" stroke-width="2" stroke="hsl(95, 50%, 50%)" fill="none" opacity="0.53"></circle><circle r="5" cx="70" cy="190" stroke-width="2" stroke="hsl(95, 50%, 50%)" fill="none" opacity="0.63"></circle><circle r="5" cx="237" cy="23" stroke-width="2" stroke="hsl(195, 50%, 50%)" fill="none" opacity="0.78"></circle><circle r="6" cx="42" cy="694" stroke-width="2" stroke="hsl(95, 50%, 50%)" fill="none" opacity="0.77"></circle><circle r="7" cx="302" cy="71" stroke-width="2" stroke="hsl(191, 50%, 50%)" fill="none" opacity="0.39"></circle><circle r="7" cx="185" cy="377" stroke-width="2" stroke="hsl(92, 50%, 50%)" fill="none" opacity="0.47"></circle><circle r="6.5" cx="487" cy="656" stroke-width="2" stroke="hsl(135, 50%, 50%)" fill="none" opacity="1.00"></circle><circle r="6" cx="710" cy="46" stroke-width="2" stroke="hsl(86, 50%, 50%)" fill="none" opacity="0.62"></circle><circle r="10.5" cx="532" cy="584" stroke-width="2" stroke="hsl(156, 50%, 50%)" fill="none" opacity="0.15"></circle><circle r="10.5" cx="423" cy="222" stroke-width="2" stroke="hsl(100, 50%, 50%)" fill="none" opacity="0.44"></circle><circle r="6" cx="52" cy="358" stroke-width="2" stroke="hsl(95, 50%, 50%)" fill="none" opacity="0.83"></circle><circle r="9" cx="666" cy="538" stroke-width="2" stroke="hsl(163, 50%, 50%)" fill="none" opacity="0.68"></circle><circle r="6.5" cx="785" cy="384" stroke-width="2" stroke="hsl(158, 50%, 50%)" fill="none" opacity="0.17"></circle><circle r="8.5" cx="161" cy="232" stroke-width="2" stroke="hsl(95, 50%, 50%)" fill="none" opacity="0.77"></circle><circle r="7.5" cx="619" cy="284" stroke-width="2" stroke="hsl(166, 50%, 50%)" fill="none" opacity="0.75"></circle><circle r="9.5" cx="510" cy="715" stroke-width="2" stroke="hsl(146, 50%, 50%)" fill="none" opacity="0.45"></circle><circle r="6" cx="264" cy="576" stroke-width="2" stroke="hsl(73, 50%, 50%)" fill="none" opacity="0.13"></circle><circle r="11.5" cx="460" cy="270" stroke-width="2" stroke="hsl(121, 50%, 50%)" fill="none" opacity="0.87"></circle><circle r="14.5" cx="363" cy="39" stroke-width="2" stroke="hsl(254, 50%, 50%)" fill="none" opacity="0.81"></circle><circle r="8.5" cx="376" cy="111" stroke-width="2" stroke="hsl(180, 50%, 50%)" fill="none" opacity="0.93"></circle><circle r="6.5" cx="78" cy="380" stroke-width="2" stroke="hsl(95, 50%, 50%)" fill="none" opacity="0.67"></circle><circle r="7" cx="258" cy="620" stroke-width="2" stroke="hsl(76, 50%, 50%)" fill="none" opacity="0.46"></circle><circle r="9.5" cx="656" cy="577" stroke-width="2" stroke="hsl(164, 50%, 50%)" fill="none" opacity="0.57"></circle><circle r="7" cx="510" cy="232" stroke-width="2" stroke="hsl(146, 50%, 50%)" fill="none" opacity="0.50"></circle><circle r="7.5" cx="712" cy="465" stroke-width="2" stroke="hsl(160, 50%, 50%)" fill="none" opacity="0.41"></circle><circle r="7" cx="785" cy="196" stroke-width="2" stroke="hsl(158, 50%, 50%)" fill="none" opacity="0.46"></circle><circle r="6" cx="739" cy="581" stroke-width="2" stroke="hsl(158, 50%, 50%)" fill="none" opacity="0.73"></circle><circle r="4.5" cx="609" cy="371" stroke-width="2" stroke="hsl(166, 50%, 50%)" fill="none" opacity="0.24"></circle><circle r="5.5" cx="120" cy="751" stroke-width="2" stroke="hsl(96, 50%, 50%)" fill="none" opacity="0.37"></circle><circle r="6.5" cx="358" cy="781" stroke-width="2" stroke="hsl(73, 50%, 50%)" fill="none" opacity="0.51"></circle><circle r="6" cx="787" cy="569" stroke-width="2" stroke="hsl(158, 50%, 50%)" fill="none" opacity="0.53"></circle><circle r="8" cx="352" cy="245" stroke-width="2" stroke="hsl(73, 50%, 50%)" fill="none" opacity="0.40"></circle><circle r="8" cx="325" cy="556" stroke-width="2" stroke="hsl(68, 50%, 50%)" fill="none" opacity="0.39"></circle><circle r="9" cx="621" cy="781" stroke-width="2" stroke="hsl(166, 50%, 50%)" fill="none" opacity="0.77"></circle><circle r="7.5" cx="338" cy="436" stroke-width="2" stroke="hsl(70, 50%, 50%)" fill="none" opacity="0.60"></circle><circle r="10.5" cx="450" cy="401" stroke-width="2" stroke="hsl(121, 50%, 50%)" fill="none" opacity="0.84"></circle><circle r="9" cx="710" cy="542" stroke-width="2" stroke="hsl(160, 50%, 50%)" fill="none" opacity="0.17"></circle><circle r="7.5" cx="710" cy="634" stroke-width="2" stroke="hsl(160, 50%, 50%)" fill="none" opacity="0.57"></circle><circle r="6.5" cx="67" cy="717" stroke-width="2" stroke="hsl(95, 50%, 50%)" fill="none" opacity="0.77"></circle><circle r="6.5" cx="374" cy="430" stroke-width="2" stroke="hsl(77, 50%, 50%)" fill="none" opacity="0.39"></circle><circle r="6.5" cx="241" cy="439" stroke-width="2" stroke="hsl(79, 50%, 50%)" fill="none" opacity="0.90"></circle><circle r="7" cx="286" cy="164" stroke-width="2" stroke="hsl(78, 50%, 50%)" fill="none" opacity="0.55"></circle><circle r="11" cx="707" cy="297" stroke-width="2" stroke="hsl(160, 50%, 50%)" fill="none" opacity="0.87"></circle><circle r="8.5" cx="284" cy="668" stroke-width="2" stroke="hsl(71, 50%, 50%)" fill="none" opacity="0.75"></circle><circle r="10" cx="623" cy="525" stroke-width="2" stroke="hsl(166, 50%, 50%)" fill="none" opacity="0.66"></circle><circle r="6" cx="16" cy="586" stroke-width="2" stroke="hsl(95, 50%, 50%)" fill="none" opacity="0.62"></circle><circle r="7" cx="680" cy="651" stroke-width="2" stroke="hsl(161, 50%, 50%)" fill="none" opacity="0.60"></circle><circle r="5" cx="398" cy="310" stroke-width="2" stroke="hsl(88, 50%, 50%)" fill="none" opacity="0.61"></circle><circle r="8" cx="502" cy="12" stroke-width="2" stroke="hsl(280, 50%, 50%)" fill="none" opacity="0.81"></circle><circle r="8.5" cx="66" cy="279" stroke-width="2" stroke="hsl(95, 50%, 50%)" fill="none" opacity="0.21"></circle><circle r="11.5" cx="216" cy="253" stroke-width="2" stroke="hsl(85, 50%, 50%)" fill="none" opacity="0.81"></circle><circle r="10.5" cx="582" cy="234" stroke-width="2" stroke="hsl(165, 50%, 50%)" fill="none" opacity="0.70"></circle><circle r="6.5" cx="161" cy="601" stroke-width="2" stroke="hsl(95, 50%, 50%)" fill="none" opacity="0.14"></circle><circle r="4" cx="129" cy="479" stroke-width="2" stroke="hsl(96, 50%, 50%)" fill="none" opacity="0.63"></circle><circle r="7.5" cx="457" cy="770" stroke-width="2" stroke="hsl(121, 50%, 50%)" fill="none" opacity="0.30"></circle><circle r="10.5" cx="604" cy="738" stroke-width="2" stroke="hsl(166, 50%, 50%)" fill="none" opacity="0.33"></circle><circle r="5.5" cx="161" cy="459" stroke-width="2" stroke="hsl(95, 50%, 50%)" fill="none" opacity="0.21"></circle><circle r="8.5" cx="171" cy="683" stroke-width="2" stroke="hsl(94, 50%, 50%)" fill="none" opacity="0.39"></circle><circle r="8" cx="109" cy="68" stroke-width="2" stroke="hsl(118, 50%, 50%)" fill="none" opacity="0.58"></circle><circle r="9.5" cx="326" cy="16" stroke-width="2" stroke="hsl(249, 50%, 50%)" fill="none" opacity="0.58"></circle><circle r="6.5" cx="72" cy="226" stroke-width="2" stroke="hsl(95, 50%, 50%)" fill="none" opacity="0.87"></circle><circle r="6.5" cx="128" cy="280" stroke-width="2" stroke="hsl(96, 50%, 50%)" fill="none" opacity="0.53"></circle><circle r="11.5" cx="709" cy="775" stroke-width="2" stroke="hsl(160, 50%, 50%)" fill="none" opacity="0.16"></circle><circle r="8.5" cx="542" cy="230" stroke-width="2" stroke="hsl(159, 50%, 50%)" fill="none" opacity="0.66"></circle><circle r="7.5" cx="561" cy="661" stroke-width="2" stroke="hsl(162, 50%, 50%)" fill="none" opacity="0.65"></circle><circle r="5" cx="174" cy="433" stroke-width="2" stroke="hsl(94, 50%, 50%)" fill="none" opacity="0.33"></circle><circle r="7.5" cx="721" cy="133" stroke-width="2" stroke="hsl(91, 50%, 50%)" fill="none" opacity="0.28"></circle><circle r="7" cx="572" cy="499" stroke-width="2" stroke="hsl(164, 50%, 50%)" fill="none" opacity="0.12"></circle><circle r="9.5" cx="604" cy="580" stroke-width="2" stroke="hsl(166, 50%, 50%)" fill="none" opacity="0.14"></circle><circle r="6" cx="20" cy="386" stroke-width="2" stroke="hsl(95, 50%, 50%)" fill="none" opacity="0.65"></circle><circle r="7.5" cx="296" cy="714" stroke-width="2" stroke="hsl(69, 50%, 50%)" fill="none" opacity="0.32"></circle><circle r="9" cx="471" cy="691" stroke-width="2" stroke="hsl(128, 50%, 50%)" fill="none" opacity="0.77"></circle><circle r="8" cx="783" cy="236" stroke-width="2" stroke="hsl(158, 50%, 50%)" fill="none" opacity="0.30"></circle><circle r="9" cx="519" cy="171" stroke-width="2" stroke="hsl(161, 50%, 50%)" fill="none" opacity="0.66"></circle><circle r="6.5" cx="31" cy="616" stroke-width="2" stroke="hsl(95, 50%, 50%)" fill="none" opacity="0.42"></circle><circle r="9.5" cx="496" cy="767" stroke-width="2" stroke="hsl(141, 50%, 50%)" fill="none" opacity="0.69"></circle><circle r="7.5" cx="18" cy="342" stroke-width="2" stroke="hsl(95, 50%, 50%)" fill="none" opacity="0.65"></circle><circle r="8" cx="770" cy="62" stroke-width="2" stroke="hsl(59, 50%, 50%)" fill="none" opacity="0.87"></circle><circle r="7.5" cx="86" cy="129" stroke-width="2" stroke="hsl(77, 50%, 50%)" fill="none" opacity="0.90"></circle><circle r="8" cx="454" cy="640" stroke-width="2" stroke="hsl(121, 50%, 50%)" fill="none" opacity="0.33"></circle><circle r="5.5" cx="366" cy="705" stroke-width="2" stroke="hsl(77, 50%, 50%)" fill="none" opacity="0.27"></circle><circle r="7.5" cx="482" cy="221" stroke-width="2" stroke="hsl(135, 50%, 50%)" fill="none" opacity="0.67"></circle><circle r="12" cx="177" cy="39" stroke-width="2" stroke="hsl(159, 50%, 50%)" fill="none" opacity="0.46"></circle><circle r="9.5" cx="324" cy="495" stroke-width="2" stroke="hsl(68, 50%, 50%)" fill="none" opacity="0.36"></circle><circle r="7.5" cx="535" cy="628" stroke-width="2" stroke="hsl(156, 50%, 50%)" fill="none" opacity="0.60"></circle><circle r="10" cx="643" cy="260" stroke-width="2" stroke="hsl(165, 50%, 50%)" fill="none" opacity="0.68"></circle><circle r="5" cx="179" cy="408" stroke-width="2" stroke="hsl(92, 50%, 50%)" fill="none" opacity="0.45"></circle><circle r="7" cx="721" cy="221" stroke-width="2" stroke="hsl(159, 50%, 50%)" fill="none" opacity="0.99"></circle><circle r="7" cx="225" cy="356" stroke-width="2" stroke="hsl(85, 50%, 50%)" fill="none" opacity="0.35"></circle><circle r="4" cx="758" cy="551" stroke-width="2" stroke="hsl(158, 50%, 50%)" fill="none" opacity="0.61"></circle><circle r="7.5" cx="782" cy="269" stroke-width="2" stroke="hsl(158, 50%, 50%)" fill="none" opacity="0.38"></circle><circle r="15" cx="571" cy="126" stroke-width="2" stroke="hsl(171, 50%, 50%)" fill="none" opacity="0.83"></circle><circle r="10" cx="663" cy="758" stroke-width="2" stroke="hsl(163, 50%, 50%)" fill="none" opacity="0.45"></circle><circle r="8.5" cx="158" cy="300" stroke-width="2" stroke="hsl(95, 50%, 50%)" fill="none" opacity="0.40"></circle><circle r="8" cx="559" cy="726" stroke-width="2" stroke="hsl(162, 50%, 50%)" fill="none" opacity="0.92"></circle><circle r="6" cx="13" cy="687" stroke-width="2" stroke="hsl(95, 50%, 50%)" fill="none" opacity="0.64"></circle><circle r="6" cx="85" cy="414" stroke-width="2" stroke="hsl(95, 50%, 50%)" fill="none" opacity="0.55"></circle><circle r="5.5" cx="287" cy="522" stroke-width="2" stroke="hsl(71, 50%, 50%)" fill="none" opacity="0.46"></circle><circle r="7" cx="99" cy="525" stroke-width="2" stroke="hsl(95, 50%, 50%)" fill="none" opacity="0.49"></circle><circle r="8.5" cx="480" cy="460" stroke-width="2" stroke="hsl(135, 50%, 50%)" fill="none" opacity="0.84"></circle><circle r="5.5" cx="762" cy="572" stroke-width="2" stroke="hsl(158, 50%, 50%)" fill="none" opacity="0.35"></circle><circle r="6.5" cx="71" cy="663" stroke-width="2" stroke="hsl(95, 50%, 50%)" fill="none" opacity="0.80"></circle><circle r="12" cx="120" cy="24" stroke-width="2" stroke="hsl(168, 50%, 50%)" fill="none" opacity="0.52"></circle><circle r="8" cx="488" cy="614" stroke-width="2" stroke="hsl(141, 50%, 50%)" fill="none" opacity="0.22"></circle><circle r="9" cx="619" cy="398" stroke-width="2" stroke="hsl(166, 50%, 50%)" fill="none" opacity="0.41"></circle><circle r="8" cx="20" cy="184" stroke-width="2" stroke="hsl(84, 50%, 50%)" fill="none" opacity="0.89"></circle><circle r="19.5" cx="584" cy="47" stroke-width="2" stroke="hsl(209, 50%, 50%)" fill="none" opacity="0.45"></circle><circle r="6.5" cx="86" cy="334" stroke-width="2" stroke="hsl(95, 50%, 50%)" fill="none" opacity="0.94"></circle><circle r="8.5" cx="496" cy="125" stroke-width="2" stroke="hsl(190, 50%, 50%)" fill="none" opacity="0.95"></circle><circle r="13" cx="528" cy="40" stroke-width="2" stroke="hsl(256, 50%, 50%)" fill="none" opacity="0.88"></circle><circle r="5.5" cx="94" cy="685" stroke-width="2" stroke="hsl(95, 50%, 50%)" fill="none" opacity="0.58"></circle><circle r="7.5" cx="776" cy="307" stroke-width="2" stroke="hsl(158, 50%, 50%)" fill="none" opacity="0.49"></circle><circle r="9.5" cx="124" cy="348" stroke-width="2" stroke="hsl(96, 50%, 50%)" fill="none" opacity="0.79"></circle><circle r="10" cx="653" cy="489" stroke-width="2" stroke="hsl(164, 50%, 50%)" fill="none" opacity="0.19"></circle><circle r="6.5" cx="119" cy="400" stroke-width="2" stroke="hsl(96, 50%, 50%)" fill="none" opacity="0.79"></circle><circle r="5.5" cx="260" cy="382" stroke-width="2" stroke="hsl(76, 50%, 50%)" fill="none" opacity="0.37"></circle><circle r="6.5" cx="746" cy="695" stroke-width="2" stroke="hsl(158, 50%, 50%)" fill="none" opacity="0.85"></circle><circle r="6.5" cx="389" cy="162" stroke-width="2" stroke="hsl(117, 50%, 50%)" fill="none" opacity="0.46"></circle><circle r="9" cx="539" cy="691" stroke-width="2" stroke="hsl(159, 50%, 50%)" fill="none" opacity="0.54"></circle><circle r="6" cx="212" cy="692" stroke-width="2" stroke="hsl(88, 50%, 50%)" fill="none" opacity="0.18"></circle><circle r="9" cx="462" cy="188" stroke-width="2" stroke="hsl(121, 50%, 50%)" fill="none" opacity="0.81"></circle><circle r="11" cx="153" cy="100" stroke-width="2" stroke="hsl(114, 50%, 50%)" fill="none" opacity="0.39"></circle><circle r="13" cx="445" cy="88" stroke-width="2" stroke="hsl(229, 50%, 50%)" fill="none" opacity="0.71"></circle><circle r="5" cx="775" cy="170" stroke-width="2" stroke="hsl(125, 50%, 50%)" fill="none" opacity="0.59"></circle><circle r="9.5" cx="780" cy="684" stroke-width="2" stroke="hsl(158, 50%, 50%)" fill="none" opacity="0.94"></circle><circle r="4" cx="283" cy="288" stroke-width="2" stroke="hsl(71, 50%, 50%)" fill="none" opacity="0.54"></circle><circle r="7.5" cx="171" cy="524" stroke-width="2" stroke="hsl(94, 50%, 50%)" fill="none" opacity="0.81"></circle><circle r="6.5" cx="216" cy="737" stroke-width="2" stroke="hsl(85, 50%, 50%)" fill="none" opacity="0.27"></circle><circle r="7" cx="171" cy="342" stroke-width="2" stroke="hsl(94, 50%, 50%)" fill="none" opacity="0.98"></circle><circle r="9.5" cx="627" cy="102" stroke-width="2" stroke="hsl(130, 50%, 50%)" fill="none" opacity="0.30"></circle><circle r="5" cx="132" cy="549" stroke-width="2" stroke="hsl(96, 50%, 50%)" fill="none" opacity="0.84"></circle><circle r="4.5" cx="791" cy="357" stroke-width="2" stroke="hsl(158, 50%, 50%)" fill="none" opacity="0.34"></circle><circle r="8" cx="569" cy="561" stroke-width="2" stroke="hsl(164, 50%, 50%)" fill="none" opacity="0.64"></circle><circle r="6" cx="408" cy="141" stroke-width="2" stroke="hsl(139, 50%, 50%)" fill="none" opacity="0.15"></circle><circle r="7" cx="678" cy="119" stroke-width="2" stroke="hsl(98, 50%, 50%)" fill="none" opacity="0.28"></circle><circle r="4.5" cx="43" cy="221" stroke-width="2" stroke="hsl(95, 50%, 50%)" fill="none" opacity="0.85"></circle><circle r="7" cx="180" cy="636" stroke-width="2" stroke="hsl(92, 50%, 50%)" fill="none" opacity="0.82"></circle><circle r="9" cx="703" cy="171" stroke-width="2" stroke="hsl(129, 50%, 50%)" fill="none" opacity="0.56"></circle><circle r="7.5" cx="36" cy="418" stroke-width="2" stroke="hsl(95, 50%, 50%)" fill="none" opacity="0.35"></circle><circle r="7" cx="78" cy="750" stroke-width="2" stroke="hsl(95, 50%, 50%)" fill="none" opacity="0.63"></circle><circle r="8" cx="61" cy="562" stroke-width="2" stroke="hsl(95, 50%, 50%)" fill="none" opacity="0.59"></circle><circle r="9" cx="132" cy="641" stroke-width="2" stroke="hsl(96, 50%, 50%)" fill="none" opacity="0.38"></circle><circle r="8.5" cx="330" cy="740" stroke-width="2" stroke="hsl(68, 50%, 50%)" fill="none" opacity="0.11"></circle><circle r="5" cx="702" cy="97" stroke-width="2" stroke="hsl(78, 50%, 50%)" fill="none" opacity="0.85"></circle><circle r="11.5" cx="647" cy="25" stroke-width="2" stroke="hsl(147, 50%, 50%)" fill="none" opacity="0.61"></circle><circle r="6.5" cx="239" cy="662" stroke-width="2" stroke="hsl(79, 50%, 50%)" fill="none" opacity="0.92"></circle><circle r="7" cx="740" cy="190" stroke-width="2" stroke="hsl(158, 50%, 50%)" fill="none" opacity="0.99"></circle><circle r="7" cx="199" cy="472" stroke-width="2" stroke="hsl(90, 50%, 50%)" fill="none" opacity="0.36"></circle><circle r="8.5" cx="38" cy="506" stroke-width="2" stroke="hsl(95, 50%, 50%)" fill="none" opacity="0.81"></circle><circle r="5" cx="785" cy="22" stroke-width="2" stroke="hsl(60, 50%, 50%)" fill="none" opacity="0.91"></circle><circle r="7.5" cx="691" cy="210" stroke-width="2" stroke="hsl(160, 50%, 50%)" fill="none" opacity="0.84"></circle><circle r="7" cx="740" cy="528" stroke-width="2" stroke="hsl(158, 50%, 50%)" fill="none" opacity="0.36"></circle><circle r="5.5" cx="702" cy="14" stroke-width="2" stroke="hsl(96, 50%, 50%)" fill="none" opacity="0.46"></circle><circle r="8" cx="24" cy="139" stroke-width="2" stroke="hsl(66, 50%, 50%)" fill="none" opacity="0.66"></circle><circle r="8" cx="351" cy="332" stroke-width="2" stroke="hsl(73, 50%, 50%)" fill="none" opacity="0.38"></circle><circle r="5" cx="208" cy="653" stroke-width="2" stroke="hsl(88, 50%, 50%)" fill="none" opacity="0.95"></circle><circle r="7.5" cx="716" cy="598" stroke-width="2" stroke="hsl(159, 50%, 50%)" fill="none" opacity="0.98"></circle><circle r="12.5" cx="214" cy="104" stroke-width="2" stroke="hsl(118, 50%, 50%)" fill="none" opacity="0.45"></circle><circle r="5.5" cx="781" cy="502" stroke-width="2" stroke="hsl(158, 50%, 50%)" fill="none" opacity="0.34"></circle><circle r="8" cx="292" cy="424" stroke-width="2" stroke="hsl(69, 50%, 50%)" fill="none" opacity="0.34"></circle><circle r="6" cx="220" cy="618" stroke-width="2" stroke="hsl(85, 50%, 50%)" fill="none" opacity="0.62"></circle><circle r="14" cx="520" cy="283" stroke-width="2" stroke="hsl(151, 50%, 50%)" fill="none" opacity="0.63"></circle><circle r="6.5" cx="107" cy="783" stroke-width="2" stroke="hsl(96, 50%, 50%)" fill="none" opacity="0.88"></circle><circle r="4" cx="238" cy="398" stroke-width="2" stroke="hsl(79, 50%, 50%)" fill="none" opacity="0.77"></circle><circle r="6.5" cx="590" cy="610" stroke-width="2" stroke="hsl(166, 50%, 50%)" fill="none" opacity="0.14"></circle><circle r="9.5" cx="168" cy="184" stroke-width="2" stroke="hsl(91, 50%, 50%)" fill="none" opacity="0.16"></circle><circle r="6.5" cx="274" cy="465" stroke-width="2" stroke="hsl(73, 50%, 50%)" fill="none" opacity="0.81"></circle><circle r="10" cx="537" cy="391" stroke-width="2" stroke="hsl(156, 50%, 50%)" fill="none" opacity="0.17"></circle><circle r="7.5" cx="569" cy="758" stroke-width="2" stroke="hsl(164, 50%, 50%)" fill="none" opacity="0.68"></circle><circle r="16" cx="421" cy="25" stroke-width="2" stroke="hsl(289, 50%, 50%)" fill="none" opacity="0.98"></circle><circle r="6" cx="569" cy="788" stroke-width="2" stroke="hsl(164, 50%, 50%)" fill="none" opacity="0.82"></circle><circle r="8.5" cx="279" cy="229" stroke-width="2" stroke="hsl(71, 50%, 50%)" fill="none" opacity="0.72"></circle><circle r="8" cx="205" cy="315" stroke-width="2" stroke="hsl(88, 50%, 50%)" fill="none" opacity="0.89"></circle><circle r="12.5" cx="559" cy="332" stroke-width="2" stroke="hsl(162, 50%, 50%)" fill="none" opacity="0.61"></circle><circle r="8" cx="312" cy="296" stroke-width="2" stroke="hsl(68, 50%, 50%)" fill="none" opacity="0.95"></circle><circle r="8.5" cx="576" cy="175" stroke-width="2" stroke="hsl(162, 50%, 50%)" fill="none" opacity="0.96"></circle><circle r="5" cx="692" cy="70" stroke-width="2" stroke="hsl(86, 50%, 50%)" fill="none" opacity="0.58"></circle><circle r="5" cx="474" cy="582" stroke-width="2" stroke="hsl(128, 50%, 50%)" fill="none" opacity="0.40"></circle><circle r="9" cx="602" cy="481" stroke-width="2" stroke="hsl(166, 50%, 50%)" fill="none" opacity="0.65"></circle><circle r="5.5" cx="385" cy="385" stroke-width="2" stroke="hsl(82, 50%, 50%)" fill="none" opacity="0.20"></circle><circle r="5.5" cx="126" cy="504" stroke-width="2" stroke="hsl(96, 50%, 50%)" fill="none" opacity="0.18"></circle><circle r="5" cx="158" cy="492" stroke-width="2" stroke="hsl(95, 50%, 50%)" fill="none" opacity="0.57"></circle><circle r="5.5" cx="263" cy="268" stroke-width="2" stroke="hsl(73, 50%, 50%)" fill="none" opacity="0.13"></circle><circle r="8" cx="652" cy="72" stroke-width="2" stroke="hsl(116, 50%, 50%)" fill="none" opacity="0.42"></circle><circle r="7.5" cx="352" cy="149" stroke-width="2" stroke="hsl(114, 50%, 50%)" fill="none" opacity="0.97"></circle><circle r="10.5" cx="376" cy="524" stroke-width="2" stroke="hsl(82, 50%, 50%)" fill="none" opacity="0.34"></circle><circle r="12.5" cx="505" cy="354" stroke-width="2" stroke="hsl(146, 50%, 50%)" fill="none" opacity="0.74"></circle><circle r="6" cx="120" cy="721" stroke-width="2" stroke="hsl(96, 50%, 50%)" fill="none" opacity="0.54"></circle><circle r="10.5" cx="458" cy="340" stroke-width="2" stroke="hsl(121, 50%, 50%)" fill="none" opacity="0.11"></circle><circle r="7" cx="102" cy="565" stroke-width="2" stroke="hsl(96, 50%, 50%)" fill="none" opacity="0.30"></circle><circle r="7.5" cx="422" cy="663" stroke-width="2" stroke="hsl(100, 50%, 50%)" fill="none" opacity="0.25"></circle><circle r="7.5" cx="214" cy="30" stroke-width="2" stroke="hsl(181, 50%, 50%)" fill="none" opacity="0.47"></circle><circle r="8" cx="778" cy="120" stroke-width="2" stroke="hsl(77, 50%, 50%)" fill="none" opacity="0.35"></circle><circle r="10" cx="745" cy="278" stroke-width="2" stroke="hsl(158, 50%, 50%)" fill="none" opacity="0.66"></circle><circle r="6" cx="493" cy="535" stroke-width="2" stroke="hsl(141, 50%, 50%)" fill="none" opacity="0.27"></circle><circle r="8" cx="81" cy="488" stroke-width="2" stroke="hsl(95, 50%, 50%)" fill="none" opacity="0.27"></circle><circle r="9.5" cx="297" cy="40" stroke-width="2" stroke="hsl(210, 50%, 50%)" fill="none" opacity="0.94"></circle><circle r="11.5" cx="672" cy="382" stroke-width="2" stroke="hsl(163, 50%, 50%)" fill="none" opacity="0.42"></circle><circle r="7" cx="579" cy="696" stroke-width="2" stroke="hsl(165, 50%, 50%)" fill="none" opacity="0.11"></circle><circle r="9.5" cx="320" cy="196" stroke-width="2" stroke="hsl(68, 50%, 50%)" fill="none" opacity="0.38"></circle><circle r="8" cx="265" cy="15" stroke-width="2" stroke="hsl(213, 50%, 50%)" fill="none" opacity="0.94"></circle><circle r="7.5" cx="415" cy="279" stroke-width="2" stroke="hsl(100, 50%, 50%)" fill="none" opacity="0.15"></circle><circle r="8.5" cx="133" cy="146" stroke-width="2" stroke="hsl(88, 50%, 50%)" fill="none" opacity="0.99"></circle><circle r="9" cx="24" cy="739" stroke-width="2" stroke="hsl(95, 50%, 50%)" fill="none" opacity="0.39"></circle><circle r="7" cx="786" cy="616" stroke-width="2" stroke="hsl(158, 50%, 50%)" fill="none" opacity="0.19"></circle><circle r="6.5" cx="279" cy="349" stroke-width="2" stroke="hsl(71, 50%, 50%)" fill="none" opacity="0.61"></circle><circle r="6.5" cx="747" cy="19" stroke-width="2" stroke="hsl(73, 50%, 50%)" fill="none" opacity="0.66"></circle><circle r="6" cx="766" cy="522" stroke-width="2" stroke="hsl(158, 50%, 50%)" fill="none" opacity="0.43"></circle><circle r="7" cx="410" cy="582" stroke-width="2" stroke="hsl(94, 50%, 50%)" fill="none" opacity="0.72"></circle><circle r="7" cx="20" cy="87" stroke-width="2" stroke="hsl(89, 50%, 50%)" fill="none" opacity="0.44"></circle></svg>