<svg xmlns="http://www.w3.org/2000/svg" version="1.1" xmlns:xlink="http://www.w3.org/1999/xlink" xmlns:svgjs="http://svgjs.com/svgjs" width="1920" height="1080" preserveAspectRatio="none" viewBox="0 0 1920 1080">
    <g mask="url(&quot;#SvgjsMask1517&quot;)" fill="none">
        <rect width="1920" height="1080" x="0" y="0" fill="url(#SvgjsLinearGradient1518)"></rect>
        <path d="M1609.515,1100.097C1720.157,1098.721,1778.611,982.101,1833.146,885.822C1886.518,791.595,1950.79,684.695,1898.534,589.844C1845.225,493.083,1719.988,479.466,1609.515,479.906C1500.066,480.342,1378.456,496.929,1324.454,592.129C1270.905,686.532,1322.924,796.858,1376.039,891.506C1430.779,989.05,1497.67,1101.488,1609.515,1100.097" fill="rgba(64, 78, 70, 0.4)" class="triangle-float3"></path>
        <path d="M77.61 1021.7 a331.16 331.16 0 1 0 662.32 0 a331.16 331.16 0 1 0 -662.32 0z" fill="rgba(64, 78, 70, 0.4)" class="triangle-float3"></path>
        <path d="M717.23 401.02 a296.82 296.82 0 1 0 593.64 0 a296.82 296.82 0 1 0 -593.64 0z" fill="rgba(64, 78, 70, 0.4)" class="triangle-float3"></path>
        <path d="M274.358,1278.666C385.593,1286.832,486.263,1212.362,539.961,1114.605C591.723,1020.373,581.37,908.121,529.684,813.847C475.661,715.311,386.652,625.916,274.358,630.153C166.726,634.214,95.146,733.978,50.36,831.934C13.407,912.756,28.848,1000.565,68.681,1080.007C114.472,1171.331,172.471,1271.186,274.358,1278.666" fill="rgba(64, 78, 70, 0.4)" class="triangle-float2"></path>
        <path d="M1338.87 925.78 a344.92 344.92 0 1 0 689.84 0 a344.92 344.92 0 1 0 -689.84 0z" fill="rgba(64, 78, 70, 0.4)" class="triangle-float3"></path>
        <path d="M328.17 921.6 a312.44 312.44 0 1 0 624.88 0 a312.44 312.44 0 1 0 -624.88 0z" fill="rgba(64, 78, 70, 0.4)" class="triangle-float2"></path>
        <path d="M474.41 75.29 a206.03 206.03 0 1 0 412.06 0 a206.03 206.03 0 1 0 -412.06 0z" fill="rgba(64, 78, 70, 0.4)" class="triangle-float1"></path>
        <path d="M499.78 416.7 a289.36 289.36 0 1 0 578.72 0 a289.36 289.36 0 1 0 -578.72 0z" fill="rgba(64, 78, 70, 0.4)" class="triangle-float1"></path>
        <path d="M-330.45 484.25 a348.59 348.59 0 1 0 697.18 0 a348.59 348.59 0 1 0 -697.18 0z" fill="rgba(64, 78, 70, 0.4)" class="triangle-float2"></path>
        <path d="M1565.18 642.36 a207.98 207.98 0 1 0 415.96 0 a207.98 207.98 0 1 0 -415.96 0z" fill="rgba(64, 78, 70, 0.4)" class="triangle-float2"></path>
        <path d="M131.03 170.3 a319.57 319.57 0 1 0 639.14 0 a319.57 319.57 0 1 0 -639.14 0z" fill="rgba(64, 78, 70, 0.4)" class="triangle-float1"></path>
        <path d="M1577.84 375.16 a235.17 235.17 0 1 0 470.34 0 a235.17 235.17 0 1 0 -470.34 0z" fill="rgba(64, 78, 70, 0.4)" class="triangle-float1"></path>
        <path d="M1515.401,675.351C1616.508,675.077,1693.935,596.131,1743.713,508.126C1792.57,421.748,1818.172,316.064,1766.568,231.298C1716.466,149,1611.741,131.793,1515.401,133.095C1421.948,134.358,1324.538,158.231,1275.722,237.931C1225.041,320.675,1238.304,424.276,1284.931,509.371C1333.69,598.357,1413.932,675.626,1515.401,675.351" fill="rgba(64, 78, 70, 0.4)" class="triangle-float3"></path>
        <path d="M1322.755,994.968C1406.276,1000.772,1491.769,966.937,1534.744,895.086C1578.721,821.561,1574.156,726.19,1525.826,655.451C1482.493,592.026,1399.537,582.568,1322.755,584.804C1250.969,586.894,1175.496,604.75,1139.183,666.709C1102.547,729.219,1120.95,805.55,1156.315,868.788C1192.736,933.915,1248.316,989.795,1322.755,994.968" fill="rgba(64, 78, 70, 0.4)" class="triangle-float3"></path>
        <path d="M511.29 924.81 a269.86 269.86 0 1 0 539.72 0 a269.86 269.86 0 1 0 -539.72 0z" fill="rgba(64, 78, 70, 0.4)" class="triangle-float1"></path>
        <path d="M1549.091,955.314C1653.079,953.413,1767.072,934.867,1818.207,844.301C1868.779,754.734,1822.11,650.051,1772.243,560.09C1720.191,466.187,1656.455,359.141,1549.091,358.807C1441.416,358.472,1377.437,465.488,1323.522,558.694C1269.494,652.094,1209.036,760.667,1262.379,854.46C1316.06,948.848,1440.524,957.298,1549.091,955.314" fill="rgba(64, 78, 70, 0.4)" class="triangle-float2"></path>
        <path d="M1559.464,528.739C1621.299,528.688,1691.397,529.232,1724.662,477.107C1759.624,422.323,1741.172,351.858,1708.016,295.963C1675.644,241.389,1622.902,200.005,1559.464,198.615C1493.707,197.174,1432.791,232.653,1399.189,289.195C1364.827,347.014,1356.394,421.478,1393.796,477.378C1428.255,528.879,1497.498,528.79,1559.464,528.739" fill="rgba(64, 78, 70, 0.4)" class="triangle-float3"></path>
        <path d="M683.438,1065.03C797.469,1072.5,914.425,1021.313,968.988,920.906C1021.672,823.957,991.55,705.061,928.113,614.781C873.802,537.488,777.865,517.262,683.438,514.525C582.132,511.588,465.665,513.318,412.894,599.845C358.819,688.509,403.875,797.531,456.086,887.305C507.918,976.427,580.561,1058.29,683.438,1065.03" fill="rgba(64, 78, 70, 0.4)" class="triangle-float3"></path>
        <path d="M790.321,767.792C859.227,771.418,934.851,762.604,973.004,705.111C1014.472,642.622,1014.236,556.63,971.214,495.201C932.699,440.208,857.46,444.444,790.321,444.272C722.717,444.099,643.674,436.96,607.819,494.272C570.759,553.51,599.378,629.364,638.161,687.489C672.277,738.62,728.938,764.562,790.321,767.792" fill="rgba(64, 78, 70, 0.4)" class="triangle-float1"></path>
        <path d="M905.421,1078.807C981.247,1074.983,1054.899,1050.977,1097.668,988.248C1146.83,916.143,1173.099,823.423,1132.052,746.409C1089.049,665.725,996.772,623.797,905.421,627.547C820.056,631.051,752.818,690.508,708.878,763.78C663.336,839.722,629.499,934.369,676.371,1009.497C721.626,1082.034,820.034,1083.114,905.421,1078.807" fill="rgba(64, 78, 70, 0.4)" class="triangle-float3"></path>
    </g>
    <defs>
        <mask id="SvgjsMask1517">
            <rect width="1920" height="1080" fill="#ffffff"></rect>
        </mask>
        <linearGradient x1="89.06%" y1="119.44%" x2="10.94%" y2="-19.44%" gradientUnits="userSpaceOnUse" id="SvgjsLinearGradient1518">
            <stop stop-color="rgba(8, 255, 40, 1)" offset="0"></stop>
            <stop stop-color="rgba(8, 255, 41, 1)" offset="1"></stop>
        </linearGradient>
        <style>
            @keyframes float1 {
                0%{transform: translate(0, 0)}
                50%{transform: translate(-10px, 0)}
                100%{transform: translate(0, 0)}
            }

            .triangle-float1 {
                animation: float1 5s infinite;
            }

            @keyframes float2 {
                0%{transform: translate(0, 0)}
                50%{transform: translate(-5px, -5px)}
                100%{transform: translate(0, 0)}
            }

            .triangle-float2 {
                animation: float2 4s infinite;
            }

            @keyframes float3 {
                0%{transform: translate(0, 0)}
                50%{transform: translate(0, -10px)}
                100%{transform: translate(0, 0)}
            }

            .triangle-float3 {
                animation: float3 6s infinite;
            }
        </style>
    </defs>
</svg>